Viviane Araújo dos Santos (Rio de Janeiro, 25 de março de 1975) é uma modelo, dançarina e atriz brasileira. Famosa por diversos ensaios para as revistas masculinas Sexy e Playboy, além de participações em programas de televisão, como o Zorra Total e o mais atual A Fazenda .


Format : Matroska
Format version : Version 2
File size : 371 MiB
Duration : 45mn 12s
Overall bit rate : 1 147 Kbps
Encoded date : UTC 2013-06-07 09:45:48
Writing application : mkvmerge v5.8.0 ('No Sleep / Pillow') built on Sep 2 2012 15:37:04
Writing library : libebml v1.2.3 + libmatroska v1.3.0

Video
ID : 1
Format : AVC
Format/Info : Advanced Video Codec
Format profile : High@L4.1
Format settings, CABAC : Yes
Format settings, ReFrames : 4 frames
Muxing mode : Header stripping
Codec ID : V_MPEG4/ISO/AVC
Duration : 45mn 12s
Bit rate : 868 Kbps
Width : 720 pixels
Height : 400 pixels
Display aspect ratio : 16:9
Frame rate mode : Constant
Frame rate : 29.970 fps
Color space : YUV
Chroma subsampling : 4:2:0
Bit depth : 8 bits
Scan type : Progressive
Bits/(Pixel*Frame) : 0.101
Stream size : 281 MiB (76%)
Title : Viviane Araujo Voyer 07(by fantasma)
Writing library : x264 core 130 r2273 b3065e6
Encoding settings : cabac=1 / ref=3 / deblock=1:0:0 / analyse=0x3:0x113 / me=hex / subme=7 / psy=1 / psy_rd=1.00:0.00 / mixed_ref=1 / me_range=16 / chroma_me=1 / trellis=1 / 8x8dct=1 / cqm=0 / deadzone=21,11 / fast_pskip=1 / chroma_qp_offset=-2 / threads=3 / lookahead_threads=1 / sliced_threads=0 / nr=0 / decimate=1 / interlaced=0 / bluray_compat=0 / constrained_intra=0 / bframes=3 / b_pyramid=2 / b_adapt=1 / b_bias=0 / direct=1 / weightb=1 / open_gop=0 / weightp=2 / keyint=300 / keyint_min=29 / scenecut=40 / intra_refresh=0 / rc_lookahead=40 / rc=crf / mbtree=1 / crf=23.0 / qcomp=0.60 / qpmin=0 / qpmax=69 / qpstep=4 / vbv_maxrate=24000 / vbv_bufsize=24000 / crf_max=0.0 / nal_hrd=none / ip_ratio=1.40 / aq=1:1.00
Language : Portuguese
Default : Yes
Forced : No

Audio
ID : 2
Format : AC-3
Format/Info : Audio Coding 3
Mode extension : CM (complete main)
Format settings, Endianness : Big
Muxing mode : Header stripping
Codec ID : A_AC3
Duration : 45mn 12s
Bit rate mode : Constant
Bit rate : 256 Kbps
Channel(s) : 2 channels
Channel positions : Front: L R
Sampling rate : 48.0 KHz
Bit depth : 16 bits
Compression mode : Lossy
Stream size : 82.8 MiB (22%)
Title : por
Language : Portuguese
Default : Yes
Forced : No

Text
ID : 3
Format : UTF-8
Codec ID : S_TEXT/UTF8
Codec ID/Info : UTF-8 Plain Text
Title : Credito
Language : Portuguese
Default : Yes
Forced : No

Menu
00:00:00.000 : en:Chapter 01
00:00:32.000 : en:Chapter 02
00:01:57.334 : en:Chapter 03
00:03:41.302 : en:Chapter 04
00:07:22.136 : en:Chapter 05
00:08:48.136 : en:Chapter 06
00:09:17.070 : en:Chapter 07
00:10:26.103 : en:Chapter 08
00:11:39.403 : en:Chapter 09
00:15:08.004 : en:Chapter 10
00:16:10.204 : en:Chapter 11
00:22:15.471 : en:Chapter 12
00:22:40.005 : en:Chapter 13
00:28:21.439 : en:Chapter 14
00:28:45.472 : en:Chapter 15
00:44:21.906 : en:Chapter 16
